<svg width="549" height="456" xmlns="http://www.w3.org/2000/svg" xmlns:xlink="http://www.w3.org/1999/xlink" xml:space="preserve" overflow="hidden"><g><g><g><g><g><path d="M909.802 648.569C906.954 638.078 904.244 553.691 905.088 501.337 905.376 483.36 905.356 468.646 905.038 468.646 902.934 468.646 876.842 484.418 868.922 490.477 866.322 492.473 863.215 494.789 862.034 495.637 859.91 497.144 859.901 497.284 861.439 502.624 866.054 518.605 867.443 541.843 864.615 555.418 860.506 575.053 851.504 590.375 838.175 600.436 812.957 619.472 780.602 616.048 756.535 591.812 725.381 560.419 721.758 505.569 748.525 470.583 756.604 460.022 768.841 451.078 780.731 447.046 789.008 444.231 807.756 444.52 816.46 447.585 830.116 452.396 842.165 462.258 850.809 475.704L855.285 482.651 861.211 478.059C869.845 471.371 889.168 459.094 898.339 454.462 902.706 452.256 906.378 450.36 906.507 450.25 906.626 450.14 907.628 441.326 908.72 430.656 913.603 383.042 919.866 348.655 927.726 326.266 938.574 295.342 953.54 282.006 967.911 290.481 976.556 295.572 980.863 310.435 979.99 332.115 979.473 344.842 978.689 346.868 974.263 346.868 970.531 346.868 969.39 345.141 968.239 337.735 967.068 330.228 963.931 320.207 961.788 317.122 953.362 305.024 939.457 343.165 931.656 399.772 929.066 418.598 926.396 442.793 926.853 443.253 927.051 443.462 930.098 442.444 933.621 441.007 942.593 437.333 948.608 436.854 951.317 439.579 953.878 442.155 954.046 446.706 951.684 449.581 950.622 450.879 946.682 452.636 941.472 454.143 924.242 459.124 925.116 458.146 924.213 473.637 922.396 504.781 920.58 541.494 919.697 564.971 917.811 614.97 916.084 646.972 915.072 650.565 914.149 653.839 910.904 652.611 909.802 648.569M821.422 591.313C830.821 586.881 838.463 577.558 842.552 565.57 845.579 556.646 845.996 538.27 843.406 527.379 839.535 511.099 831.645 498.013 819.735 488.121 803.29 474.466 786.081 470.353 773.089 476.981 764.653 481.283 758.053 491.006 754.302 504.661 751.572 514.583 751.81 535.555 754.758 546.005 759.254 561.906 766.598 574.164 777.168 583.367 782.379 587.889 785.733 589.836 793.137 592.591 800.61 595.376 814.128 594.767 821.422 591.313M816.44 466.67C809.691 462.228 800.342 460.052 793.594 461.35L788.175 462.398 794.328 462.527C800.055 462.647 813.969 466.321 817.453 468.626 818.266 469.165 819.388 469.615 819.934 469.615 820.48 469.615 818.911 468.297 816.44 466.67M1002.02 610.328C985.835 607.933 968.08 596.963 960.2 584.485 955.396 576.899 957.401 569.133 964.15 569.133 966.73 569.133 968.626 570.551 975.474 577.598 988.167 590.684 1001.03 596.214 1016.41 595.186 1036.09 593.878 1048.48 578.626 1044.64 560.429 1042.36 549.659 1037.04 541.404 1021.29 524.235 1002.99 504.301 997.606 491.425 1000.05 473.527 1003.64 447.275 1029.36 425.715 1051.23 430.636 1063.59 433.421 1070.98 445.039 1065.9 453.684 1061.87 460.561 1055.23 459.433 1050.53 451.078 1048.11 446.746 1046.81 445.499 1043.78 444.58 1036.02 442.244 1027.26 448.084 1022.29 458.904 1019.7 464.544 1018.43 470.174 1018.43 479.676 1018.43 489.848 1019.55 486.484 1023.16 493.831 1025.7 499.001 1029.67 504.511 1035.57 511.039 1051.26 528.417 1054.73 532.939 1058.9 541.374 1062.74 549.14 1063.06 550.417 1063.42 559.541 1063.73 567.466 1063.41 570.68 1061.72 576.27 1054.33 600.776 1030.25 614.511 1002.02 610.328M612.507 711.254C591.794 707.901 572.044 695.833 561.186 679.892 555.033 670.868 552.294 663.162 551.718 653.25 550.855 638.497 556.036 626.05 568.561 612.784L575.508 605.437 570.804 600.177C561.067 589.287 553.068 575.053 549.247 561.767 547.282 554.939 547.014 551.855 547.093 536.523 547.163 521.869 547.52 517.767 549.336 511.069 552.453 499.56 561.167 482.481 568.302 473.907 592.499 444.84 630.937 435.477 664.056 450.579 682.695 459.074 700.549 478.558 707.229 497.673 715.992 522.778 712.826 550.318 698.932 569.902 691.696 580.093 682.397 587.949 671.063 593.429 658.856 599.328 652.792 600.846 641.289 600.846 631.672 600.846 624.943 599.498 615.792 595.755L609.996 593.389 605.798 595.515C603.486 596.683 600.826 598.32 599.883 599.159 598.275 600.576 598.315 600.776 600.469 602.483 604.647 605.787 616.507 611.257 625.489 614.022 633.498 616.487 635.85 616.757 650.221 616.816 667.748 616.886 671.787 616.078 685.176 609.879 690.168 607.563 694.178 604.708 698.356 600.486 704.916 593.868 707.814 592.95 711.258 596.414 713.749 598.919 713.749 598.939 710.732 613.353 707 631.09 702.782 644.586 697.393 655.995 681.226 690.173 655.977 709.667 625.409 711.564 621.042 711.843 615.236 711.694 612.507 711.254M635.334 691.74C639.155 690.931 645.636 688.626 649.725 686.619 659.511 681.828 671.132 670.119 677.603 658.54 683.489 648 688.014 634.794 687.052 630.941 686.387 628.266 686.109 628.136 682.179 628.655 679.886 628.954 674.656 629.963 670.567 630.901 661.615 632.947 641.239 633.237 631.999 631.45 620.904 629.304 608.805 625.361 598.821 620.63L589.095 616.038 583.606 621.448C576.778 628.176 573.841 633.097 571.756 641.262 570.387 646.632 570.317 648.599 571.31 653.719 576.451 680.241 606.175 697.889 635.334 691.74M594.762 586.013 599.813 583.088 594.93 577.029C584.5 564.063 579.736 549.519 580.54 533.029 581.383 515.581 587.308 501.866 599.724 488.63 616.08 471.192 636.823 464.953 636.823 477.47 636.823 478.868 634.272 481.074 628.139 484.977 612.795 494.739 604.051 506.208 600.449 521.33 594.98 544.259 610.324 570.261 633.29 576.969 636.684 577.967 642.321 578.666 646.678 578.626 672.075 578.426 691.409 557.105 691.409 529.276 691.409 500.818 674.388 475.823 647.601 464.943 639.344 461.589 632.039 460.681 622.114 461.779 596.965 464.564 576.808 482.801 568.183 510.57 566.159 517.108 565.861 520.073 565.861 534.027 565.861 551.426 567.012 556.926 573.255 569.373 577.959 578.726 587.08 590.055 589.194 589.147 589.472 589.027 591.973 587.61 594.762 586.013Z" fill="#000000" fill-rule="nonzero" fill-opacity="1" transform="matrix(1 0 0 1.00182 -532.53 -272)"/></g></g></g></g></g></svg>